# xmcd
#
# Track frame offsets:
#	150
#	12406
#	22817
#	55886
#	82109
#	105088
#	123022
#	153140
#
# Disc length: 2412 seconds
# Revision: 0
# Processed by: cddbd v1.5.2PL0 Copyright (c) Steve Scherf et al.
# Submitted via: dBpowerAMP V12.0
#
DISCID=4b096a08
DTITLE=Various Artist - Dave Shephard and the Blues Riders Live
DYEAR=1900
DGENRE=Blues
TTITLE0=Dave Shepard - Big City Girl
TTITLE1=Dave Shephard - E-Jam
TTITLE2=Dave Shephard - Cuts Me
TTITLE3=Dave Shephard - I Fooled Myself
TTITLE4=Dave Shephard - One Black Coal
TTITLE5=Dave Shephard - 1949
TTITLE6=Dave Shephard - The Call
TTITLE7=Dave Shephard - Love and Hate
EXTD=
EXTT0=
EXTT1=
EXTT2=
EXTT3=
EXTT4=
EXTT5=
EXTT6=
EXTT7=
PLAYORDER=
